# xmcd CD database file
#
# Track frame offsets:
#	150
#	23807
#	43007
#	68886
#	90413
#	113031
#	135202
#	164921
#	181424
#
# Disc length: 2647 seconds
#
# Revision: 0
# Processed by: cddbd v1.5.2PL0 Copyright (c) Steve Scherf et al.
# Submitted via: CDex 1.70beta2
#
DISCID=710a5509
DTITLE=cyminology - get strong - live
DYEAR=2002
DGENRE=Jazz
TTITLE0=what if not
TTITLE1=caminology
TTITLE2=get strong
TTITLE3=wüste
TTITLE4=i'm gonna make it
TTITLE5=kaktus
TTITLE6=phasenliebe
TTITLE7=we don't get along
TTITLE8=prepare me
EXTD=YEAR: 2002
EXTT0=
EXTT1=
EXTT2=
EXTT3=
EXTT4=
EXTT5=
EXTT6=
EXTT7=
EXTT8=
PLAYORDER=
